<?xml version="1.0" standalone="no"?>
<!DOCTYPE svg PUBLIC "-//W3C//DTD SVG 20010904//EN"
 "http://www.w3.org/TR/2001/REC-SVG-20010904/DTD/svg10.dtd">
<svg version="1.0" xmlns="http://www.w3.org/2000/svg"
 width="400.000000pt" height="400.000000pt" viewBox="0 0 400.000000 400.000000"
 preserveAspectRatio="xMidYMid meet">
<metadata>
Created by potrace 1.14, written by Peter Selinger 2001-2017
</metadata>
<g transform="translate(0.000000,400.000000) scale(0.100000,-0.100000)"
fill="#000000" stroke="none">
<path d="M1072 3933 c-7 -2 -178 -12 -216 -13 -42 -2 -161 -32 -224 -57 -191
-76 -331 -204 -422 -388 -40 -80 -77 -205 -83 -280 -1 -22 -5 -45 -8 -50 -2
-6 -4 -55 -4 -110 0 -55 -4 -103 -10 -107 -6 -5 -5 -8 3 -8 7 0 10 -4 7 -10
-8 -12 -8 -1476 -1 -1489 4 -5 2 -12 -4 -16 -6 -4 -8 -11 -4 -16 11 -18 10
-239 -1 -239 -7 0 -7 -3 0 -8 12 -9 13 -102 1 -121 -6 -10 -6 -12 2 -7 7 4 10
-7 9 -34 -2 -22 0 -40 3 -40 3 0 6 -10 7 -22 1 -55 20 -154 34 -180 5 -10 7
-18 4 -18 -3 0 2 -14 10 -31 9 -17 14 -38 10 -47 -3 -9 -3 -13 1 -9 4 4 23
-21 42 -56 39 -70 79 -124 134 -178 20 -20 34 -40 30 -44 -4 -3 0 -5 8 -3 8 2
14 -3 12 -10 -1 -8 2 -11 9 -6 7 4 17 1 23 -7 6 -8 25 -22 41 -31 17 -10 29
-22 28 -27 -2 -5 6 -8 17 -6 11 2 20 -1 20 -6 0 -6 5 -7 10 -4 6 3 10 1 10 -4
0 -6 6 -10 12 -8 7 1 12 -4 10 -11 -1 -8 2 -11 8 -7 5 3 37 -3 69 -15 33 -11
74 -23 93 -26 18 -2 49 -7 68 -10 19 -2 38 -10 42 -17 6 -9 8 -9 8 0 0 13 54
13 67 0 3 -4 12 -2 20 4 7 6 13 7 13 2 0 -5 374 -9 928 -8 819 1 929 -1 947
-15 18 -14 19 -14 7 1 -10 13 -8 16 18 16 18 0 27 -4 23 -11 -4 -6 0 -5 9 1 8
7 18 10 21 6 4 -3 7 0 7 8 0 11 2 11 10 -1 5 -8 10 -11 10 -6 0 6 7 1 15 -10
11 -14 14 -15 9 -2 -4 13 1 16 30 14 20 -1 36 1 36 4 0 3 18 5 40 6 22 0 40
-4 40 -10 0 -6 4 -5 9 2 5 8 24 15 43 16 19 1 40 6 47 10 6 4 19 2 28 -6 9 -7
14 -8 10 -2 -6 11 69 42 87 36 5 -2 17 5 27 14 10 9 23 13 28 9 6 -3 11 -2 11
2 0 5 9 14 21 21 14 9 19 9 14 2 -4 -7 11 1 33 17 22 15 50 35 62 43 13 8 31
23 41 34 9 10 22 15 28 12 7 -4 8 -1 5 8 -4 11 0 16 11 16 9 0 13 4 10 10 -3
5 2 10 11 10 10 0 15 3 11 6 -3 3 4 16 16 29 35 37 57 67 78 108 12 22 24 35
31 31 7 -4 8 -3 4 4 -4 7 -1 26 7 44 14 30 28 66 32 78 55 176 54 161 55 1367
1 535 -1 977 -4 982 -4 5 -2 13 4 16 8 5 8 11 0 20 -6 8 -9 27 -7 44 3 17 2
33 -3 36 -5 3 -7 13 -6 22 2 14 -7 58 -38 184 -19 76 -117 231 -196 308 -146
144 -321 217 -568 237 -73 6 -1977 13 -2000 7z"/>
<path d="M310 402 c0 -5 7 -9 15 -9 8 0 12 4 9 9 -3 4 -9 8 -15 8 -5 0 -9 -4
-9 -8z"/>
<path d="M1036 113 c-6 -14 -5 -15 5 -6 7 7 10 15 7 18 -3 3 -9 -2 -12 -12z"/>
<path d="M1330 120 c0 -5 5 -10 11 -10 5 0 7 5 4 10 -3 6 -8 10 -11 10 -2 0
-4 -4 -4 -10z"/>
<path d="M1535 120 c-3 -5 -1 -10 4 -10 6 0 11 5 11 10 0 6 -2 10 -4 10 -3 0
-8 -4 -11 -10z"/>
<path d="M1776 113 c-6 -14 -5 -15 5 -6 7 7 10 15 7 18 -3 3 -9 -2 -12 -12z"/>
<path d="M2015 120 c-3 -5 -1 -10 4 -10 6 0 11 5 11 10 0 6 -2 10 -4 10 -3 0
-8 -4 -11 -10z"/>
<path d="M2256 113 c-6 -14 -5 -15 5 -6 7 7 10 15 7 18 -3 3 -9 -2 -12 -12z"/>
<path d="M2495 120 c-3 -5 -1 -10 4 -10 6 0 11 5 11 10 0 6 -2 10 -4 10 -3 0
-8 -4 -11 -10z"/>
<path d="M2815 120 c-3 -5 -1 -10 4 -10 6 0 11 5 11 10 0 6 -2 10 -4 10 -3 0
-8 -4 -11 -10z"/>
</g>
</svg>
